{
    "asset" : {
        "generator" : "Khronos glTF Blender I/O v0.9.36",
        "version" : "2.0"
    },
    "scene" : 0,
    "scenes" : [
        {
            "extras" : {
                "glTF2ExportSettings" : {
                    "export_apply" : 1,
                    "export_extras" : 1,
                    "export_format" : "GLTF_EMBEDDED",
                    "export_selected" : 1
                }
            },
            "name" : "Scene",
            "nodes" : [
                0,
                1
            ]
        }
    ],
    "nodes" : [
        {
            "mesh" : 0,
            "name" : "Plane.004",
            "rotation" : [
                0.7071068286895752,
                0,
                0.7071068286895752,
                -4.75030326185788e-08
            ],
            "scale" : [
                0.052015699446201324,
                0.052015699446201324,
                0.11322279274463654
            ],
            "translation" : [
                7.894046306610107,
                0.5587245225906372,
                0.0414598248898983
            ]
        },
        {
            "extras" : {},
            "mesh" : 1,
            "name" : "Cube.054",
            "rotation" : [
                0.5,
                -0.5,
                -0.5000000596046448,
                0.4999999403953552
            ],
            "scale" : [
                0.04825242608785629,
                0.3120809495449066,
                0.3483438193798065
            ],
            "translation" : [
                7.881967544555664,
                0.3899187445640564,
                0.01702173240482807
            ]
        }
    ],
    "materials" : [
        {
            "name" : "cargo 6.000",
            "pbrMetallicRoughness" : {
                "baseColorTexture" : {
                    "index" : 0,
                    "texCoord" : 0
                },
                "metallicFactor" : 1,
                "roughnessFactor" : 1
            }
        },
        {
            "extras" : {},
            "name" : "Material.004",
            "pbrMetallicRoughness" : {
                "baseColorFactor" : [
                    1,
                    1,
                    1,
                    1
                ],
                "metallicFactor" : 1,
                "roughnessFactor" : 1
            }
        },
        {
            "name" : "Material.007",
            "pbrMetallicRoughness" : {
                "baseColorFactor" : [
                    1,
                    1,
                    1,
                    1
                ],
                "metallicFactor" : 1,
                "roughnessFactor" : 1
            }
        },
        {
            "alphaMode" : "BLEND",
            "extras" : {},
            "name" : "tr",
            "pbrMetallicRoughness" : {
                "baseColorFactor" : [
                    0.12823911011219025,
                    0.12823911011219025,
                    0.12823911011219025,
                    0.24285699427127838
                ],
                "metallicFactor" : 1,
                "roughnessFactor" : 0.0555555559694767
            }
        }
    ],
    "meshes" : [
        {
            "name" : "Plane.006",
            "primitives" : [
                {
                    "attributes" : {
                        "POSITION" : 0,
                        "NORMAL" : 1,
                        "TEXCOORD_0" : 2
                    },
                    "indices" : 3,
                    "material" : 0
                }
            ]
        },
        {
            "name" : "Cube.001",
            "primitives" : [
                {
                    "attributes" : {
                        "POSITION" : 4,
                        "NORMAL" : 5
                    },
                    "indices" : 6,
                    "material" : 1
                },
                {
                    "attributes" : {
                        "POSITION" : 7,
                        "NORMAL" : 8
                    },
                    "indices" : 9,
                    "material" : 2
                },
                {
                    "attributes" : {
                        "POSITION" : 10,
                        "NORMAL" : 11
                    },
                    "indices" : 12,
                    "material" : 3
                }
            ]
        }
    ],
    "textures" : [
        {
            "source" : 0
        }
    ],
    "images" : [
        {
            "bufferView" : 4,
            "mimeType" : "image/png",
            "name" : "Image_0"
        }
    ],
    "accessors" : [
        {
            "bufferView" : 0,
            "componentType" : 5126,
            "count" : 1104,
            "max" : [
                2.854306936264038,
                8.353069305419922,
                0.04152426868677139
            ],
            "min" : [
                -3.173403024673462,
                -1.274610996246338,
                -0.18776744604110718
            ],
            "type" : "VEC3"
        },
        {
            "bufferView" : 1,
            "componentType" : 5126,
            "count" : 1104,
            "type" : "VEC3"
        },
        {
            "bufferView" : 2,
            "componentType" : 5126,
            "count" : 1104,
            "type" : "VEC2"
        },
        {
            "bufferView" : 3,
            "componentType" : 5123,
            "count" : 1344,
            "type" : "SCALAR"
        },
        {
            "bufferView" : 5,
            "componentType" : 5126,
            "count" : 164,
            "max" : [
                7.348377704620361,
                0.7396947145462036,
                0.4153602123260498
            ],
            "min" : [
                -7.219199180603027,
                -0.6899529695510864,
                -0.4153602123260498
            ],
            "type" : "VEC3"
        },
        {
            "bufferView" : 6,
            "componentType" : 5126,
            "count" : 164,
            "type" : "VEC3"
        },
        {
            "bufferView" : 7,
            "componentType" : 5123,
            "count" : 264,
            "type" : "SCALAR"
        },
        {
            "bufferView" : 8,
            "componentType" : 5126,
            "count" : 24,
            "max" : [
                6.4164299964904785,
                0.6190176010131836,
                0.02517724223434925
            ],
            "min" : [
                -6.4164299964904785,
                -0.5692758560180664,
                -0.025177108123898506
            ],
            "type" : "VEC3"
        },
        {
            "bufferView" : 9,
            "componentType" : 5126,
            "count" : 24,
            "type" : "VEC3"
        },
        {
            "bufferView" : 10,
            "componentType" : 5123,
            "count" : 48,
            "type" : "SCALAR"
        },
        {
            "bufferView" : 11,
            "componentType" : 5126,
            "count" : 8,
            "max" : [
                6.4164299964904785,
                0.6190176010131836,
                0.059580400586128235
            ],
            "min" : [
                -6.4164299964904785,
                -0.5692758560180664,
                -0.05958026647567749
            ],
            "type" : "VEC3"
        },
        {
            "bufferView" : 12,
            "componentType" : 5126,
            "count" : 8,
            "type" : "VEC3"
        },
        {
            "bufferView" : 13,
            "componentType" : 5123,
            "count" : 12,
            "type" : "SCALAR"
        }
    ],
    "bufferViews" : [
        {
            "buffer" : 0,
            "byteLength" : 13248,
            "byteOffset" : 0
        },
        {
            "buffer" : 0,
            "byteLength" : 13248,
            "byteOffset" : 13248
        },
        {
            "buffer" : 0,
            "byteLength" : 8832,
            "byteOffset" : 26496
        },
        {
            "buffer" : 0,
            "byteLength" : 2688,
            "byteOffset" : 35328
        },
        {
            "buffer" : 0,
            "byteLength" : 94454,
            "byteOffset" : 38016
        },
        {
            "buffer" : 0,
            "byteLength" : 1968,
            "byteOffset" : 132472
        },
        {
            "buffer" : 0,
            "byteLength" : 1968,
            "byteOffset" : 134440
        },
        {
            "buffer" : 0,
            "byteLength" : 528,
            "byteOffset" : 136408
        },
        {
            "buffer" : 0,
            "byteLength" : 288,
            "byteOffset" : 136936
        },
        {
            "buffer" : 0,
            "byteLength" : 288,
            "byteOffset" : 137224
        },
        {
            "buffer" : 0,
            "byteLength" : 96,
            "byteOffset" : 137512
        },
        {
            "buffer" : 0,
            "byteLength" : 96,
            "byteOffset" : 137608
        },
        {
            "buffer" : 0,
            "byteLength" : 96,
            "byteOffset" : 137704
        },
        {
            "buffer" : 0,
            "byteLength" : 24,
            "byteOffset" : 137800
        }
    ],
    "buffers" : [
        {
            "byteLength" : 137824,
            "uri" : "data:application/octet-stream;base64,"
        }
    ]
}
