{
    "asset" : {
        "generator" : "Khronos glTF Blender I/O v0.9.36",
        "version" : "2.0"
    },
    "scene" : 0,
    "scenes" : [
        {
            "extras" : {
                "glTF2ExportSettings" : {
                    "export_apply" : 1,
                    "export_extras" : 1,
                    "export_format" : "GLTF_EMBEDDED",
                    "export_selected" : 1
                }
            },
            "name" : "Scene",
            "nodes" : [
                0,
                1
            ]
        }
    ],
    "nodes" : [
        {
            "extras" : {},
            "mesh" : 0,
            "name" : "Cube.115",
            "rotation" : [
                0.7071068286895752,
                -0.7071067094802856,
                0,
                -5.356187937621826e-09
            ],
            "scale" : [
                0.0482524111866951,
                0.31208088994026184,
                0.34834378957748413
            ],
            "translation" : [
                4.214095592498779,
                0.38991793990135193,
                6.0055975914001465
            ]
        },
        {
            "mesh" : 1,
            "name" : "Plane.021",
            "rotation" : [
                0,
                0,
                -1,
                -8.146033536604591e-08
            ],
            "scale" : [
                0.04465130344033241,
                0.04465130344033241,
                0.10841697454452515
            ],
            "translation" : [
                4.195998191833496,
                0.5430827736854553,
                6.013675212860107
            ]
        }
    ],
    "materials" : [
        {
            "extras" : {},
            "name" : "Material.027",
            "pbrMetallicRoughness" : {
                "baseColorFactor" : [
                    1,
                    1,
                    1,
                    1
                ],
                "metallicFactor" : 1,
                "roughnessFactor" : 1
            }
        },
        {
            "name" : "Material.028",
            "pbrMetallicRoughness" : {
                "baseColorFactor" : [
                    1,
                    1,
                    1,
                    1
                ],
                "metallicFactor" : 1,
                "roughnessFactor" : 1
            }
        },
        {
            "alphaMode" : "BLEND",
            "extras" : {},
            "name" : "tr",
            "pbrMetallicRoughness" : {
                "baseColorFactor" : [
                    0.12823911011219025,
                    0.12823911011219025,
                    0.12823911011219025,
                    0.24285699427127838
                ],
                "metallicFactor" : 1,
                "roughnessFactor" : 0.0555555559694767
            }
        },
        {
            "name" : "test inari black detail.000",
            "pbrMetallicRoughness" : {
                "baseColorTexture" : {
                    "index" : 0,
                    "texCoord" : 0
                },
                "metallicFactor" : 1,
                "roughnessFactor" : 1
            }
        }
    ],
    "meshes" : [
        {
            "name" : "Cube.012",
            "primitives" : [
                {
                    "attributes" : {
                        "POSITION" : 0,
                        "NORMAL" : 1
                    },
                    "indices" : 2,
                    "material" : 0
                },
                {
                    "attributes" : {
                        "POSITION" : 3,
                        "NORMAL" : 4
                    },
                    "indices" : 5,
                    "material" : 1
                },
                {
                    "attributes" : {
                        "POSITION" : 6,
                        "NORMAL" : 7
                    },
                    "indices" : 8,
                    "material" : 2
                }
            ]
        },
        {
            "name" : "Plane.015",
            "primitives" : [
                {
                    "attributes" : {
                        "POSITION" : 9,
                        "NORMAL" : 10,
                        "TEXCOORD_0" : 11
                    },
                    "indices" : 12,
                    "material" : 3
                }
            ]
        }
    ],
    "textures" : [
        {
            "source" : 0
        }
    ],
    "images" : [
        {
            "bufferView" : 13,
            "mimeType" : "image/png",
            "name" : "Image_0"
        }
    ],
    "accessors" : [
        {
            "bufferView" : 0,
            "componentType" : 5126,
            "count" : 164,
            "max" : [
                7.348377704620361,
                0.7396947145462036,
                0.4153602123260498
            ],
            "min" : [
                -7.219199180603027,
                -0.6899529695510864,
                -0.4153602123260498
            ],
            "type" : "VEC3"
        },
        {
            "bufferView" : 1,
            "componentType" : 5126,
            "count" : 164,
            "type" : "VEC3"
        },
        {
            "bufferView" : 2,
            "componentType" : 5123,
            "count" : 264,
            "type" : "SCALAR"
        },
        {
            "bufferView" : 3,
            "componentType" : 5126,
            "count" : 24,
            "max" : [
                6.4164299964904785,
                0.6190176010131836,
                0.02517724223434925
            ],
            "min" : [
                -6.4164299964904785,
                -0.5692758560180664,
                -0.025177108123898506
            ],
            "type" : "VEC3"
        },
        {
            "bufferView" : 4,
            "componentType" : 5126,
            "count" : 24,
            "type" : "VEC3"
        },
        {
            "bufferView" : 5,
            "componentType" : 5123,
            "count" : 48,
            "type" : "SCALAR"
        },
        {
            "bufferView" : 6,
            "componentType" : 5126,
            "count" : 8,
            "max" : [
                6.4164299964904785,
                0.6190176010131836,
                0.059580400586128235
            ],
            "min" : [
                -6.4164299964904785,
                -0.5692758560180664,
                -0.05958026647567749
            ],
            "type" : "VEC3"
        },
        {
            "bufferView" : 7,
            "componentType" : 5126,
            "count" : 8,
            "type" : "VEC3"
        },
        {
            "bufferView" : 8,
            "componentType" : 5123,
            "count" : 12,
            "type" : "SCALAR"
        },
        {
            "bufferView" : 9,
            "componentType" : 5126,
            "count" : 1716,
            "max" : [
                2.661057949066162,
                8.356368064880371,
                0.04624133184552193
            ],
            "min" : [
                -2.671602487564087,
                -1.196485996246338,
                -0.22144752740859985
            ],
            "type" : "VEC3"
        },
        {
            "bufferView" : 10,
            "componentType" : 5126,
            "count" : 1716,
            "type" : "VEC3"
        },
        {
            "bufferView" : 11,
            "componentType" : 5126,
            "count" : 1716,
            "type" : "VEC2"
        },
        {
            "bufferView" : 12,
            "componentType" : 5123,
            "count" : 2184,
            "type" : "SCALAR"
        }
    ],
    "bufferViews" : [
        {
            "buffer" : 0,
            "byteLength" : 1968,
            "byteOffset" : 0
        },
        {
            "buffer" : 0,
            "byteLength" : 1968,
            "byteOffset" : 1968
        },
        {
            "buffer" : 0,
            "byteLength" : 528,
            "byteOffset" : 3936
        },
        {
            "buffer" : 0,
            "byteLength" : 288,
            "byteOffset" : 4464
        },
        {
            "buffer" : 0,
            "byteLength" : 288,
            "byteOffset" : 4752
        },
        {
            "buffer" : 0,
            "byteLength" : 96,
            "byteOffset" : 5040
        },
        {
            "buffer" : 0,
            "byteLength" : 96,
            "byteOffset" : 5136
        },
        {
            "buffer" : 0,
            "byteLength" : 96,
            "byteOffset" : 5232
        },
        {
            "buffer" : 0,
            "byteLength" : 24,
            "byteOffset" : 5328
        },
        {
            "buffer" : 0,
            "byteLength" : 20592,
            "byteOffset" : 5352
        },
        {
            "buffer" : 0,
            "byteLength" : 20592,
            "byteOffset" : 25944
        },
        {
            "buffer" : 0,
            "byteLength" : 13728,
            "byteOffset" : 46536
        },
        {
            "buffer" : 0,
            "byteLength" : 4368,
            "byteOffset" : 60264
        },
        {
            "buffer" : 0,
            "byteLength" : 390029,
            "byteOffset" : 64632
        }
    ],
    "buffers" : [
        {
            "byteLength" : 454664,
            "uri" : "data:application/octet-stream;base64,"
        }
    ]
}
