{
    "asset" : {
        "generator" : "Khronos glTF Blender I/O v0.9.36",
        "version" : "2.0"
    },
    "scene" : 0,
    "scenes" : [
        {
            "extras" : {
                "glTF2ExportSettings" : {
                    "export_apply" : 1,
                    "export_extras" : 1,
                    "export_format" : "GLTF_EMBEDDED",
                    "export_selected" : 1
                }
            },
            "name" : "Scene",
            "nodes" : [
                0,
                1
            ]
        }
    ],
    "nodes" : [
        {
            "extras" : {},
            "mesh" : 0,
            "name" : "Cube.044",
            "rotation" : [
                -0.5000001192092896,
                0.5000000596046448,
                -0.5,
                0.49999991059303284
            ],
            "scale" : [
                0.04825242608785629,
                0.3120810389518738,
                0.3483438193798065
            ],
            "translation" : [
                4.875052452087402,
                0.3899194598197937,
                -5.234567642211914
            ]
        },
        {
            "mesh" : 1,
            "name" : "Plane.009",
            "rotation" : [
                0.7071066498756409,
                0,
                -0.70710688829422,
                -8.964986619730553e-08
            ],
            "scale" : [
                0.044651299715042114,
                0.044651299715042114,
                0.10841694474220276
            ],
            "translation" : [
                4.867469787597656,
                0.531734049320221,
                -5.237783908843994
            ]
        }
    ],
    "materials" : [
        {
            "extras" : {},
            "name" : "Material.023",
            "pbrMetallicRoughness" : {
                "baseColorFactor" : [
                    1,
                    1,
                    1,
                    1
                ],
                "metallicFactor" : 1,
                "roughnessFactor" : 1
            }
        },
        {
            "name" : "Material.024",
            "pbrMetallicRoughness" : {
                "baseColorFactor" : [
                    1,
                    1,
                    1,
                    1
                ],
                "metallicFactor" : 1,
                "roughnessFactor" : 1
            }
        },
        {
            "alphaMode" : "BLEND",
            "extras" : {},
            "name" : "tr",
            "pbrMetallicRoughness" : {
                "baseColorFactor" : [
                    0.12823911011219025,
                    0.12823911011219025,
                    0.12823911011219025,
                    0.24285699427127838
                ],
                "metallicFactor" : 1,
                "roughnessFactor" : 0.0555555559694767
            }
        },
        {
            "name" : "chino khaki.000",
            "pbrMetallicRoughness" : {
                "baseColorTexture" : {
                    "index" : 0,
                    "texCoord" : 0
                },
                "metallicFactor" : 1,
                "roughnessFactor" : 1
            }
        }
    ],
    "meshes" : [
        {
            "name" : "Cube.010",
            "primitives" : [
                {
                    "attributes" : {
                        "POSITION" : 0,
                        "NORMAL" : 1
                    },
                    "indices" : 2,
                    "material" : 0
                },
                {
                    "attributes" : {
                        "POSITION" : 3,
                        "NORMAL" : 4
                    },
                    "indices" : 5,
                    "material" : 1
                },
                {
                    "attributes" : {
                        "POSITION" : 6,
                        "NORMAL" : 7
                    },
                    "indices" : 8,
                    "material" : 2
                }
            ]
        },
        {
            "name" : "Plane.011",
            "primitives" : [
                {
                    "attributes" : {
                        "POSITION" : 9,
                        "NORMAL" : 10,
                        "TEXCOORD_0" : 11
                    },
                    "indices" : 12,
                    "material" : 3
                }
            ]
        }
    ],
    "textures" : [
        {
            "source" : 0
        }
    ],
    "images" : [
        {
            "bufferView" : 13,
            "mimeType" : "image/png",
            "name" : "Image_0"
        }
    ],
    "accessors" : [
        {
            "bufferView" : 0,
            "componentType" : 5126,
            "count" : 164,
            "max" : [
                7.348377704620361,
                0.7396947145462036,
                0.4153602123260498
            ],
            "min" : [
                -7.219199180603027,
                -0.6899529695510864,
                -0.4153602123260498
            ],
            "type" : "VEC3"
        },
        {
            "bufferView" : 1,
            "componentType" : 5126,
            "count" : 164,
            "type" : "VEC3"
        },
        {
            "bufferView" : 2,
            "componentType" : 5123,
            "count" : 264,
            "type" : "SCALAR"
        },
        {
            "bufferView" : 3,
            "componentType" : 5126,
            "count" : 24,
            "max" : [
                6.4164299964904785,
                0.6190176010131836,
                0.02517724223434925
            ],
            "min" : [
                -6.4164299964904785,
                -0.5692758560180664,
                -0.025177108123898506
            ],
            "type" : "VEC3"
        },
        {
            "bufferView" : 4,
            "componentType" : 5126,
            "count" : 24,
            "type" : "VEC3"
        },
        {
            "bufferView" : 5,
            "componentType" : 5123,
            "count" : 48,
            "type" : "SCALAR"
        },
        {
            "bufferView" : 6,
            "componentType" : 5126,
            "count" : 8,
            "max" : [
                6.4164299964904785,
                0.6190176010131836,
                0.059580400586128235
            ],
            "min" : [
                -6.4164299964904785,
                -0.5692758560180664,
                -0.05958026647567749
            ],
            "type" : "VEC3"
        },
        {
            "bufferView" : 7,
            "componentType" : 5126,
            "count" : 8,
            "type" : "VEC3"
        },
        {
            "bufferView" : 8,
            "componentType" : 5123,
            "count" : 12,
            "type" : "SCALAR"
        },
        {
            "bufferView" : 9,
            "componentType" : 5126,
            "count" : 1671,
            "max" : [
                2.661057949066162,
                8.356369018554688,
                0.046241261065006256
            ],
            "min" : [
                -2.671602487564087,
                -1.1964850425720215,
                -0.22144749760627747
            ],
            "type" : "VEC3"
        },
        {
            "bufferView" : 10,
            "componentType" : 5126,
            "count" : 1671,
            "type" : "VEC3"
        },
        {
            "bufferView" : 11,
            "componentType" : 5126,
            "count" : 1671,
            "type" : "VEC2"
        },
        {
            "bufferView" : 12,
            "componentType" : 5123,
            "count" : 2184,
            "type" : "SCALAR"
        }
    ],
    "bufferViews" : [
        {
            "buffer" : 0,
            "byteLength" : 1968,
            "byteOffset" : 0
        },
        {
            "buffer" : 0,
            "byteLength" : 1968,
            "byteOffset" : 1968
        },
        {
            "buffer" : 0,
            "byteLength" : 528,
            "byteOffset" : 3936
        },
        {
            "buffer" : 0,
            "byteLength" : 288,
            "byteOffset" : 4464
        },
        {
            "buffer" : 0,
            "byteLength" : 288,
            "byteOffset" : 4752
        },
        {
            "buffer" : 0,
            "byteLength" : 96,
            "byteOffset" : 5040
        },
        {
            "buffer" : 0,
            "byteLength" : 96,
            "byteOffset" : 5136
        },
        {
            "buffer" : 0,
            "byteLength" : 96,
            "byteOffset" : 5232
        },
        {
            "buffer" : 0,
            "byteLength" : 24,
            "byteOffset" : 5328
        },
        {
            "buffer" : 0,
            "byteLength" : 20052,
            "byteOffset" : 5352
        },
        {
            "buffer" : 0,
            "byteLength" : 20052,
            "byteOffset" : 25404
        },
        {
            "buffer" : 0,
            "byteLength" : 13368,
            "byteOffset" : 45456
        },
        {
            "buffer" : 0,
            "byteLength" : 4368,
            "byteOffset" : 58824
        },
        {
            "buffer" : 0,
            "byteLength" : 403287,
            "byteOffset" : 63192
        }
    ],
    "buffers" : [
        {
            "byteLength" : 466480,
            "uri" : "data:application/octet-stream;base64,"
        }
    ]
}
